<mxfile host="app.diagrams.net" agent="Mozilla/5.0 (Windows NT 10.0; Win64; x64) AppleWebKit/537.36 (KHTML, like Gecko) Chrome/133.0.0.0 Safari/537.36" version="26.0.16">
  <diagram name="Page-1" id="Qb8e3pl5RaUtBhnUwZ13">
    <mxGraphModel dx="2163" dy="1796" grid="1" gridSize="10" guides="1" tooltips="1" connect="1" arrows="1" fold="1" page="1" pageScale="1" pageWidth="850" pageHeight="1100" math="0" shadow="0">
      <root>
        <mxCell id="0" />
        <mxCell id="1" parent="0" />
        <mxCell id="stkBc33TZ4ZUdulqgKSo-1" value="Paciente" style="whiteSpace=wrap;html=1;align=center;fillColor=#fff2cc;strokeColor=#d6b656;" vertex="1" parent="1">
          <mxGeometry x="119" y="-263" width="100" height="40" as="geometry" />
        </mxCell>
        <mxCell id="stkBc33TZ4ZUdulqgKSo-2" value="ID_Paciente" style="ellipse;whiteSpace=wrap;html=1;align=center;fontStyle=4;fillColor=#dae8fc;strokeColor=#6c8ebf;" vertex="1" parent="1">
          <mxGeometry x="-10" y="-346" width="100" height="40" as="geometry" />
        </mxCell>
        <mxCell id="stkBc33TZ4ZUdulqgKSo-3" value="Nombre" style="ellipse;whiteSpace=wrap;html=1;align=center;fillColor=#dae8fc;strokeColor=#6c8ebf;" vertex="1" parent="1">
          <mxGeometry x="-8" y="-295" width="100" height="40" as="geometry" />
        </mxCell>
        <mxCell id="stkBc33TZ4ZUdulqgKSo-4" value="Apellido" style="ellipse;whiteSpace=wrap;html=1;align=center;fillColor=#dae8fc;strokeColor=#6c8ebf;" vertex="1" parent="1">
          <mxGeometry x="239" y="-349" width="100" height="40" as="geometry" />
        </mxCell>
        <mxCell id="stkBc33TZ4ZUdulqgKSo-5" value="FechaNacimiento" style="ellipse;whiteSpace=wrap;html=1;align=center;fillColor=#dae8fc;strokeColor=#6c8ebf;" vertex="1" parent="1">
          <mxGeometry y="-238" width="100" height="40" as="geometry" />
        </mxCell>
        <mxCell id="stkBc33TZ4ZUdulqgKSo-8" value="Telefono" style="ellipse;whiteSpace=wrap;html=1;align=center;fillColor=#dae8fc;strokeColor=#6c8ebf;" vertex="1" parent="1">
          <mxGeometry x="256" y="-250" width="100" height="40" as="geometry" />
        </mxCell>
        <mxCell id="stkBc33TZ4ZUdulqgKSo-11" value="ID_Seguro" style="ellipse;whiteSpace=wrap;html=1;align=center;fontStyle=4;fillColor=#dae8fc;strokeColor=#6c8ebf;" vertex="1" parent="1">
          <mxGeometry x="242" y="-296" width="100" height="40" as="geometry" />
        </mxCell>
        <mxCell id="stkBc33TZ4ZUdulqgKSo-14" value="" style="endArrow=none;html=1;rounded=0;" edge="1" parent="1">
          <mxGeometry relative="1" as="geometry">
            <mxPoint x="263" y="-267" as="sourcePoint" />
            <mxPoint x="313" y="-267" as="targetPoint" />
          </mxGeometry>
        </mxCell>
        <mxCell id="stkBc33TZ4ZUdulqgKSo-15" value="Vacunacion" style="whiteSpace=wrap;html=1;align=center;fillColor=#fff2cc;strokeColor=#d6b656;" vertex="1" parent="1">
          <mxGeometry x="-165" y="-50" width="100" height="40" as="geometry" />
        </mxCell>
        <mxCell id="stkBc33TZ4ZUdulqgKSo-16" value="ID_Paciente" style="ellipse;whiteSpace=wrap;html=1;align=center;fontStyle=4;fillColor=#dae8fc;strokeColor=#6c8ebf;" vertex="1" parent="1">
          <mxGeometry x="-290" y="-50" width="100" height="40" as="geometry" />
        </mxCell>
        <mxCell id="stkBc33TZ4ZUdulqgKSo-17" value="ID_Vacuna" style="ellipse;whiteSpace=wrap;html=1;align=center;fontStyle=4;fillColor=#dae8fc;strokeColor=#6c8ebf;" vertex="1" parent="1">
          <mxGeometry x="-260" y="-113" width="100" height="40" as="geometry" />
        </mxCell>
        <mxCell id="stkBc33TZ4ZUdulqgKSo-19" value="NombreVacuna" style="ellipse;whiteSpace=wrap;html=1;align=center;fillColor=#dae8fc;strokeColor=#6c8ebf;" vertex="1" parent="1">
          <mxGeometry x="-128" y="10" width="100" height="40" as="geometry" />
        </mxCell>
        <mxCell id="stkBc33TZ4ZUdulqgKSo-20" value="FechaAplicacion" style="ellipse;whiteSpace=wrap;html=1;align=center;fillColor=#dae8fc;strokeColor=#6c8ebf;" vertex="1" parent="1">
          <mxGeometry x="-260" y="10" width="100" height="40" as="geometry" />
        </mxCell>
        <mxCell id="stkBc33TZ4ZUdulqgKSo-21" value="Tiene" style="shape=rhombus;perimeter=rhombusPerimeter;whiteSpace=wrap;html=1;align=center;fillColor=#f8cecc;strokeColor=#b85450;" vertex="1" parent="1">
          <mxGeometry x="-70" y="-143" width="90" height="60" as="geometry" />
        </mxCell>
        <mxCell id="stkBc33TZ4ZUdulqgKSo-22" value="" style="endArrow=none;html=1;rounded=0;exitX=0;exitY=1;exitDx=0;exitDy=0;entryX=0.5;entryY=0;entryDx=0;entryDy=0;" edge="1" parent="1" source="stkBc33TZ4ZUdulqgKSo-21" target="stkBc33TZ4ZUdulqgKSo-15">
          <mxGeometry relative="1" as="geometry">
            <mxPoint x="-78.41000000000008" y="-80.98000000000002" as="sourcePoint" />
            <mxPoint x="180" y="-100" as="targetPoint" />
          </mxGeometry>
        </mxCell>
        <mxCell id="stkBc33TZ4ZUdulqgKSo-23" value="" style="endArrow=none;html=1;rounded=0;exitX=1;exitY=0;exitDx=0;exitDy=0;entryX=0.5;entryY=1;entryDx=0;entryDy=0;" edge="1" parent="1" source="stkBc33TZ4ZUdulqgKSo-21" target="stkBc33TZ4ZUdulqgKSo-1">
          <mxGeometry relative="1" as="geometry">
            <mxPoint x="-37" y="-88" as="sourcePoint" />
            <mxPoint x="-65" y="-50" as="targetPoint" />
          </mxGeometry>
        </mxCell>
        <mxCell id="stkBc33TZ4ZUdulqgKSo-24" value="1" style="text;strokeColor=none;fillColor=none;spacingLeft=4;spacingRight=4;overflow=hidden;rotatable=0;points=[[0,0.5],[1,0.5]];portConstraint=eastwest;fontSize=12;whiteSpace=wrap;html=1;" vertex="1" parent="1">
          <mxGeometry x="-9" y="-162" width="40" height="30" as="geometry" />
        </mxCell>
        <mxCell id="stkBc33TZ4ZUdulqgKSo-25" value="N" style="text;strokeColor=none;fillColor=none;spacingLeft=4;spacingRight=4;overflow=hidden;rotatable=0;points=[[0,0.5],[1,0.5]];portConstraint=eastwest;fontSize=12;whiteSpace=wrap;html=1;" vertex="1" parent="1">
          <mxGeometry x="149" y="-351" width="40" height="30" as="geometry" />
        </mxCell>
        <mxCell id="stkBc33TZ4ZUdulqgKSo-27" value="Seguro_Medico" style="whiteSpace=wrap;html=1;align=center;fillColor=#fff2cc;strokeColor=#d6b656;" vertex="1" parent="1">
          <mxGeometry x="117" y="-520" width="100" height="40" as="geometry" />
        </mxCell>
        <mxCell id="stkBc33TZ4ZUdulqgKSo-28" value="ID_Seguro" style="ellipse;whiteSpace=wrap;html=1;align=center;fontStyle=4;fillColor=#dae8fc;strokeColor=#6c8ebf;" vertex="1" parent="1">
          <mxGeometry x="-9" y="-530" width="100" height="40" as="geometry" />
        </mxCell>
        <mxCell id="stkBc33TZ4ZUdulqgKSo-30" value="Proveedor" style="ellipse;whiteSpace=wrap;html=1;align=center;fillColor=#dae8fc;strokeColor=#6c8ebf;" vertex="1" parent="1">
          <mxGeometry x="50" y="-590" width="100" height="40" as="geometry" />
        </mxCell>
        <mxCell id="stkBc33TZ4ZUdulqgKSo-31" value="Numero_Poliza" style="ellipse;whiteSpace=wrap;html=1;align=center;fillColor=#dae8fc;strokeColor=#6c8ebf;" vertex="1" parent="1">
          <mxGeometry x="200" y="-590" width="100" height="40" as="geometry" />
        </mxCell>
        <mxCell id="stkBc33TZ4ZUdulqgKSo-33" value="Cobertura" style="ellipse;whiteSpace=wrap;html=1;align=center;fillColor=#dae8fc;strokeColor=#6c8ebf;" vertex="1" parent="1">
          <mxGeometry x="260" y="-530" width="100" height="40" as="geometry" />
        </mxCell>
        <mxCell id="stkBc33TZ4ZUdulqgKSo-34" value="Esta Asegurado" style="shape=rhombus;perimeter=rhombusPerimeter;whiteSpace=wrap;html=1;align=center;fillColor=#f8cecc;strokeColor=#b85450;" vertex="1" parent="1">
          <mxGeometry x="122" y="-404" width="90" height="60" as="geometry" />
        </mxCell>
        <mxCell id="stkBc33TZ4ZUdulqgKSo-35" value="" style="endArrow=none;html=1;rounded=0;exitX=0.5;exitY=1;exitDx=0;exitDy=0;entryX=0.5;entryY=0;entryDx=0;entryDy=0;" edge="1" parent="1" source="stkBc33TZ4ZUdulqgKSo-34" target="stkBc33TZ4ZUdulqgKSo-1">
          <mxGeometry relative="1" as="geometry">
            <mxPoint x="8" y="-118" as="sourcePoint" />
            <mxPoint x="179" y="-213" as="targetPoint" />
          </mxGeometry>
        </mxCell>
        <mxCell id="stkBc33TZ4ZUdulqgKSo-36" value="" style="endArrow=none;html=1;rounded=0;exitX=0.5;exitY=0;exitDx=0;exitDy=0;entryX=0.5;entryY=1;entryDx=0;entryDy=0;" edge="1" parent="1" source="stkBc33TZ4ZUdulqgKSo-34" target="stkBc33TZ4ZUdulqgKSo-27">
          <mxGeometry relative="1" as="geometry">
            <mxPoint x="177" y="-334" as="sourcePoint" />
            <mxPoint x="179" y="-253" as="targetPoint" />
          </mxGeometry>
        </mxCell>
        <mxCell id="stkBc33TZ4ZUdulqgKSo-37" value="N" style="text;strokeColor=none;fillColor=none;spacingLeft=4;spacingRight=4;overflow=hidden;rotatable=0;points=[[0,0.5],[1,0.5]];portConstraint=eastwest;fontSize=12;whiteSpace=wrap;html=1;" vertex="1" parent="1">
          <mxGeometry x="-99" y="-101" width="40" height="30" as="geometry" />
        </mxCell>
        <mxCell id="stkBc33TZ4ZUdulqgKSo-38" value="1" style="text;strokeColor=none;fillColor=none;spacingLeft=4;spacingRight=4;overflow=hidden;rotatable=0;points=[[0,0.5],[1,0.5]];portConstraint=eastwest;fontSize=12;whiteSpace=wrap;html=1;" vertex="1" parent="1">
          <mxGeometry x="146" y="-425" width="40" height="30" as="geometry" />
        </mxCell>
        <mxCell id="stkBc33TZ4ZUdulqgKSo-39" value="Cita" style="whiteSpace=wrap;html=1;align=center;fillColor=#fff2cc;strokeColor=#d6b656;" vertex="1" parent="1">
          <mxGeometry x="146" y="-20" width="100" height="40" as="geometry" />
        </mxCell>
        <mxCell id="stkBc33TZ4ZUdulqgKSo-40" value="ID_Paciente" style="ellipse;whiteSpace=wrap;html=1;align=center;fontStyle=4;fillColor=#dae8fc;strokeColor=#6c8ebf;" vertex="1" parent="1">
          <mxGeometry x="60" y="50" width="100" height="40" as="geometry" />
        </mxCell>
        <mxCell id="stkBc33TZ4ZUdulqgKSo-41" value="ID_Cita" style="ellipse;whiteSpace=wrap;html=1;align=center;fontStyle=4;fillColor=#dae8fc;strokeColor=#6c8ebf;" vertex="1" parent="1">
          <mxGeometry x="280" y="200" width="100" height="40" as="geometry" />
        </mxCell>
        <mxCell id="stkBc33TZ4ZUdulqgKSo-42" value="ID_Medico" style="ellipse;whiteSpace=wrap;html=1;align=center;fontStyle=4;fillColor=#dae8fc;strokeColor=#6c8ebf;" vertex="1" parent="1">
          <mxGeometry x="34" y="-71" width="100" height="40" as="geometry" />
        </mxCell>
        <mxCell id="stkBc33TZ4ZUdulqgKSo-43" value="Fecha_Hora" style="ellipse;whiteSpace=wrap;html=1;align=center;fillColor=#dae8fc;strokeColor=#6c8ebf;" vertex="1" parent="1">
          <mxGeometry x="21" y="-15" width="100" height="40" as="geometry" />
        </mxCell>
        <mxCell id="stkBc33TZ4ZUdulqgKSo-44" value="Estado" style="ellipse;whiteSpace=wrap;html=1;align=center;fillColor=#dae8fc;strokeColor=#6c8ebf;" vertex="1" parent="1">
          <mxGeometry x="260" y="-78" width="100" height="40" as="geometry" />
        </mxCell>
        <mxCell id="stkBc33TZ4ZUdulqgKSo-45" value="Agenda" style="shape=rhombus;perimeter=rhombusPerimeter;whiteSpace=wrap;html=1;align=center;fillColor=#f8cecc;strokeColor=#b85450;" vertex="1" parent="1">
          <mxGeometry x="151" y="-123" width="90" height="60" as="geometry" />
        </mxCell>
        <mxCell id="stkBc33TZ4ZUdulqgKSo-46" value="" style="endArrow=none;html=1;rounded=0;exitX=0.75;exitY=1;exitDx=0;exitDy=0;entryX=0.5;entryY=0;entryDx=0;entryDy=0;" edge="1" parent="1" source="stkBc33TZ4ZUdulqgKSo-1" target="stkBc33TZ4ZUdulqgKSo-45">
          <mxGeometry relative="1" as="geometry">
            <mxPoint x="440" y="-123" as="sourcePoint" />
            <mxPoint x="442" y="-42" as="targetPoint" />
          </mxGeometry>
        </mxCell>
        <mxCell id="stkBc33TZ4ZUdulqgKSo-47" value="" style="endArrow=none;html=1;rounded=0;exitX=0.5;exitY=1;exitDx=0;exitDy=0;entryX=0.5;entryY=0;entryDx=0;entryDy=0;" edge="1" parent="1" source="stkBc33TZ4ZUdulqgKSo-45" target="stkBc33TZ4ZUdulqgKSo-39">
          <mxGeometry relative="1" as="geometry">
            <mxPoint x="204" y="-213" as="sourcePoint" />
            <mxPoint x="206" y="-113" as="targetPoint" />
          </mxGeometry>
        </mxCell>
        <mxCell id="stkBc33TZ4ZUdulqgKSo-48" value="1" style="text;strokeColor=none;fillColor=none;spacingLeft=4;spacingRight=4;overflow=hidden;rotatable=0;points=[[0,0.5],[1,0.5]];portConstraint=eastwest;fontSize=12;whiteSpace=wrap;html=1;" vertex="1" parent="1">
          <mxGeometry x="199" y="-143" width="40" height="30" as="geometry" />
        </mxCell>
        <mxCell id="stkBc33TZ4ZUdulqgKSo-49" value="N" style="text;strokeColor=none;fillColor=none;spacingLeft=4;spacingRight=4;overflow=hidden;rotatable=0;points=[[0,0.5],[1,0.5]];portConstraint=eastwest;fontSize=12;whiteSpace=wrap;html=1;" vertex="1" parent="1">
          <mxGeometry x="201" y="-73" width="40" height="30" as="geometry" />
        </mxCell>
        <mxCell id="stkBc33TZ4ZUdulqgKSo-50" value="" style="endArrow=none;html=1;rounded=0;" edge="1" parent="1">
          <mxGeometry relative="1" as="geometry">
            <mxPoint x="-265" y="-22" as="sourcePoint" />
            <mxPoint x="-215" y="-22" as="targetPoint" />
          </mxGeometry>
        </mxCell>
        <mxCell id="stkBc33TZ4ZUdulqgKSo-51" value="" style="endArrow=none;html=1;rounded=0;" edge="1" parent="1">
          <mxGeometry relative="1" as="geometry">
            <mxPoint x="58" y="-42" as="sourcePoint" />
            <mxPoint x="108" y="-42" as="targetPoint" />
          </mxGeometry>
        </mxCell>
        <mxCell id="stkBc33TZ4ZUdulqgKSo-52" value="" style="endArrow=none;html=1;rounded=0;" edge="1" parent="1">
          <mxGeometry relative="1" as="geometry">
            <mxPoint x="82" y="79" as="sourcePoint" />
            <mxPoint x="132" y="79" as="targetPoint" />
          </mxGeometry>
        </mxCell>
        <mxCell id="stkBc33TZ4ZUdulqgKSo-53" value="Facturacion" style="whiteSpace=wrap;html=1;align=center;fillColor=#fff2cc;strokeColor=#d6b656;" vertex="1" parent="1">
          <mxGeometry x="145" y="200" width="100" height="40" as="geometry" />
        </mxCell>
        <mxCell id="stkBc33TZ4ZUdulqgKSo-54" value="ID_Factura" style="ellipse;whiteSpace=wrap;html=1;align=center;fontStyle=4;fillColor=#dae8fc;strokeColor=#6c8ebf;" vertex="1" parent="1">
          <mxGeometry x="156" y="290" width="100" height="40" as="geometry" />
        </mxCell>
        <mxCell id="stkBc33TZ4ZUdulqgKSo-55" value="Monto" style="ellipse;whiteSpace=wrap;html=1;align=center;fillColor=#dae8fc;strokeColor=#6c8ebf;" vertex="1" parent="1">
          <mxGeometry x="22" y="290" width="100" height="40" as="geometry" />
        </mxCell>
        <mxCell id="stkBc33TZ4ZUdulqgKSo-56" value="Estado" style="ellipse;whiteSpace=wrap;html=1;align=center;fillColor=#dae8fc;strokeColor=#6c8ebf;" vertex="1" parent="1">
          <mxGeometry x="280" y="290" width="100" height="40" as="geometry" />
        </mxCell>
        <mxCell id="stkBc33TZ4ZUdulqgKSo-57" value="Fecha_Facturacion" style="ellipse;whiteSpace=wrap;html=1;align=center;fillColor=#dae8fc;strokeColor=#6c8ebf;" vertex="1" parent="1">
          <mxGeometry x="17" y="200" width="100" height="40" as="geometry" />
        </mxCell>
        <mxCell id="stkBc33TZ4ZUdulqgKSo-58" value="ID_Cita" style="ellipse;whiteSpace=wrap;html=1;align=center;fontStyle=4;fillColor=#dae8fc;strokeColor=#6c8ebf;" vertex="1" parent="1">
          <mxGeometry x="260" y="50" width="100" height="40" as="geometry" />
        </mxCell>
        <mxCell id="stkBc33TZ4ZUdulqgKSo-59" value="" style="endArrow=none;html=1;rounded=0;" edge="1" parent="1">
          <mxGeometry relative="1" as="geometry">
            <mxPoint x="305" y="230" as="sourcePoint" />
            <mxPoint x="355" y="230" as="targetPoint" />
          </mxGeometry>
        </mxCell>
        <mxCell id="stkBc33TZ4ZUdulqgKSo-60" value="Genera" style="shape=rhombus;perimeter=rhombusPerimeter;whiteSpace=wrap;html=1;align=center;fillColor=#f8cecc;strokeColor=#b85450;" vertex="1" parent="1">
          <mxGeometry x="151" y="88" width="90" height="60" as="geometry" />
        </mxCell>
        <mxCell id="stkBc33TZ4ZUdulqgKSo-61" value="" style="endArrow=none;html=1;rounded=0;exitX=0.5;exitY=1;exitDx=0;exitDy=0;entryX=0.5;entryY=0;entryDx=0;entryDy=0;" edge="1" parent="1" source="stkBc33TZ4ZUdulqgKSo-39" target="stkBc33TZ4ZUdulqgKSo-60">
          <mxGeometry relative="1" as="geometry">
            <mxPoint x="200" y="40" as="sourcePoint" />
            <mxPoint x="200" y="83" as="targetPoint" />
          </mxGeometry>
        </mxCell>
        <mxCell id="stkBc33TZ4ZUdulqgKSo-63" value="" style="endArrow=none;html=1;rounded=0;entryX=0.5;entryY=0;entryDx=0;entryDy=0;exitX=0.5;exitY=1;exitDx=0;exitDy=0;" edge="1" parent="1" source="stkBc33TZ4ZUdulqgKSo-60" target="stkBc33TZ4ZUdulqgKSo-53">
          <mxGeometry relative="1" as="geometry">
            <mxPoint x="292" y="120" as="sourcePoint" />
            <mxPoint x="291.5" y="188" as="targetPoint" />
          </mxGeometry>
        </mxCell>
        <mxCell id="stkBc33TZ4ZUdulqgKSo-64" value="1" style="text;strokeColor=none;fillColor=none;spacingLeft=4;spacingRight=4;overflow=hidden;rotatable=0;points=[[0,0.5],[1,0.5]];portConstraint=eastwest;fontSize=12;whiteSpace=wrap;html=1;" vertex="1" parent="1">
          <mxGeometry x="198" y="60" width="40" height="30" as="geometry" />
        </mxCell>
        <mxCell id="stkBc33TZ4ZUdulqgKSo-66" value="1" style="text;strokeColor=none;fillColor=none;spacingLeft=4;spacingRight=4;overflow=hidden;rotatable=0;points=[[0,0.5],[1,0.5]];portConstraint=eastwest;fontSize=12;whiteSpace=wrap;html=1;" vertex="1" parent="1">
          <mxGeometry x="205" y="140" width="40" height="30" as="geometry" />
        </mxCell>
        <mxCell id="stkBc33TZ4ZUdulqgKSo-68" value="Empleado" style="whiteSpace=wrap;html=1;align=center;fillColor=#fff2cc;strokeColor=#d6b656;" vertex="1" parent="1">
          <mxGeometry x="570" y="-233" width="100" height="40" as="geometry" />
        </mxCell>
        <mxCell id="stkBc33TZ4ZUdulqgKSo-69" value="ID_Empleado" style="ellipse;whiteSpace=wrap;html=1;align=center;fontStyle=4;fillColor=#dae8fc;strokeColor=#6c8ebf;" vertex="1" parent="1">
          <mxGeometry x="510" y="-306" width="100" height="40" as="geometry" />
        </mxCell>
        <mxCell id="stkBc33TZ4ZUdulqgKSo-70" value="Nombre" style="ellipse;whiteSpace=wrap;html=1;align=center;fillColor=#dae8fc;strokeColor=#6c8ebf;" vertex="1" parent="1">
          <mxGeometry x="440" y="-240" width="100" height="40" as="geometry" />
        </mxCell>
        <mxCell id="stkBc33TZ4ZUdulqgKSo-71" value="Apellido" style="ellipse;whiteSpace=wrap;html=1;align=center;fillColor=#dae8fc;strokeColor=#6c8ebf;" vertex="1" parent="1">
          <mxGeometry x="630" y="-306" width="100" height="40" as="geometry" />
        </mxCell>
        <mxCell id="stkBc33TZ4ZUdulqgKSo-72" value="Rol" style="ellipse;whiteSpace=wrap;html=1;align=center;fillColor=#dae8fc;strokeColor=#6c8ebf;" vertex="1" parent="1">
          <mxGeometry x="710" y="-133" width="100" height="40" as="geometry" />
        </mxCell>
        <mxCell id="stkBc33TZ4ZUdulqgKSo-73" value="Telefono" style="ellipse;whiteSpace=wrap;html=1;align=center;fillColor=#dae8fc;strokeColor=#6c8ebf;" vertex="1" parent="1">
          <mxGeometry x="700" y="-250" width="100" height="40" as="geometry" />
        </mxCell>
        <mxCell id="stkBc33TZ4ZUdulqgKSo-74" value="Especialidad" style="ellipse;whiteSpace=wrap;html=1;align=center;fillColor=#dae8fc;strokeColor=#6c8ebf;" vertex="1" parent="1">
          <mxGeometry x="700" y="-193" width="100" height="40" as="geometry" />
        </mxCell>
        <mxCell id="stkBc33TZ4ZUdulqgKSo-75" value="Atiende" style="shape=rhombus;perimeter=rhombusPerimeter;whiteSpace=wrap;html=1;align=center;fillColor=#f8cecc;strokeColor=#b85450;" vertex="1" parent="1">
          <mxGeometry x="390" y="-30" width="90" height="60" as="geometry" />
        </mxCell>
        <mxCell id="stkBc33TZ4ZUdulqgKSo-76" value="" style="endArrow=none;html=1;rounded=0;exitX=1;exitY=0.5;exitDx=0;exitDy=0;entryX=0;entryY=0.5;entryDx=0;entryDy=0;" edge="1" parent="1" source="stkBc33TZ4ZUdulqgKSo-39" target="stkBc33TZ4ZUdulqgKSo-75">
          <mxGeometry relative="1" as="geometry">
            <mxPoint x="434" y="-123" as="sourcePoint" />
            <mxPoint x="436" y="-23" as="targetPoint" />
          </mxGeometry>
        </mxCell>
        <mxCell id="stkBc33TZ4ZUdulqgKSo-77" value="" style="endArrow=none;html=1;rounded=0;exitX=0;exitY=1;exitDx=0;exitDy=0;entryX=1;entryY=0;entryDx=0;entryDy=0;" edge="1" parent="1" source="stkBc33TZ4ZUdulqgKSo-68" target="stkBc33TZ4ZUdulqgKSo-75">
          <mxGeometry relative="1" as="geometry">
            <mxPoint x="538" y="-113" as="sourcePoint" />
            <mxPoint x="540" y="-13" as="targetPoint" />
          </mxGeometry>
        </mxCell>
        <mxCell id="stkBc33TZ4ZUdulqgKSo-78" value="1" style="text;strokeColor=none;fillColor=none;spacingLeft=4;spacingRight=4;overflow=hidden;rotatable=0;points=[[0,0.5],[1,0.5]];portConstraint=eastwest;fontSize=12;whiteSpace=wrap;html=1;" vertex="1" parent="1">
          <mxGeometry x="444" y="-54" width="40" height="30" as="geometry" />
        </mxCell>
        <mxCell id="stkBc33TZ4ZUdulqgKSo-79" value="N" style="text;strokeColor=none;fillColor=none;spacingLeft=4;spacingRight=4;overflow=hidden;rotatable=0;points=[[0,0.5],[1,0.5]];portConstraint=eastwest;fontSize=12;whiteSpace=wrap;html=1;" vertex="1" parent="1">
          <mxGeometry x="360" y="-28" width="40" height="30" as="geometry" />
        </mxCell>
        <mxCell id="stkBc33TZ4ZUdulqgKSo-81" value="Historial_Medico" style="whiteSpace=wrap;html=1;align=center;fillColor=#fff2cc;strokeColor=#d6b656;" vertex="1" parent="1">
          <mxGeometry x="590" y="2" width="100" height="40" as="geometry" />
        </mxCell>
        <mxCell id="stkBc33TZ4ZUdulqgKSo-82" value="ID_Historial" style="ellipse;whiteSpace=wrap;html=1;align=center;fontStyle=4;fillColor=#dae8fc;strokeColor=#6c8ebf;" vertex="1" parent="1">
          <mxGeometry x="416" y="270" width="100" height="40" as="geometry" />
        </mxCell>
        <mxCell id="stkBc33TZ4ZUdulqgKSo-83" value="ID_Paciente" style="ellipse;whiteSpace=wrap;html=1;align=center;fontStyle=4;fillColor=#dae8fc;strokeColor=#6c8ebf;" vertex="1" parent="1">
          <mxGeometry x="730" y="-5" width="100" height="40" as="geometry" />
        </mxCell>
        <mxCell id="stkBc33TZ4ZUdulqgKSo-85" value="ID_Medico" style="ellipse;whiteSpace=wrap;html=1;align=center;fontStyle=4;fillColor=#dae8fc;strokeColor=#6c8ebf;" vertex="1" parent="1">
          <mxGeometry x="628" y="80" width="100" height="40" as="geometry" />
        </mxCell>
        <mxCell id="stkBc33TZ4ZUdulqgKSo-86" value="Fecha" style="ellipse;whiteSpace=wrap;html=1;align=center;fillColor=#dae8fc;strokeColor=#6c8ebf;" vertex="1" parent="1">
          <mxGeometry x="653" y="-59" width="100" height="40" as="geometry" />
        </mxCell>
        <mxCell id="stkBc33TZ4ZUdulqgKSo-87" value="Notas" style="ellipse;whiteSpace=wrap;html=1;align=center;fillColor=#dae8fc;strokeColor=#6c8ebf;" vertex="1" parent="1">
          <mxGeometry x="528" y="-70" width="100" height="40" as="geometry" />
        </mxCell>
        <mxCell id="stkBc33TZ4ZUdulqgKSo-88" value="Posee" style="shape=rhombus;perimeter=rhombusPerimeter;whiteSpace=wrap;html=1;align=center;fillColor=#f8cecc;strokeColor=#b85450;" vertex="1" parent="1">
          <mxGeometry x="390" y="-143" width="90" height="60" as="geometry" />
        </mxCell>
        <mxCell id="stkBc33TZ4ZUdulqgKSo-89" value="" style="endArrow=none;html=1;rounded=0;exitX=0;exitY=0.5;exitDx=0;exitDy=0;entryX=1;entryY=1;entryDx=0;entryDy=0;" edge="1" parent="1" source="stkBc33TZ4ZUdulqgKSo-81" target="stkBc33TZ4ZUdulqgKSo-88">
          <mxGeometry relative="1" as="geometry">
            <mxPoint x="580" y="-183" as="sourcePoint" />
            <mxPoint x="468" y="-5" as="targetPoint" />
          </mxGeometry>
        </mxCell>
        <mxCell id="stkBc33TZ4ZUdulqgKSo-90" value="" style="endArrow=none;html=1;rounded=0;exitX=0;exitY=0;exitDx=0;exitDy=0;entryX=1;entryY=1;entryDx=0;entryDy=0;" edge="1" parent="1" source="stkBc33TZ4ZUdulqgKSo-88" target="stkBc33TZ4ZUdulqgKSo-1">
          <mxGeometry relative="1" as="geometry">
            <mxPoint x="600" y="32" as="sourcePoint" />
            <mxPoint x="468" y="-88" as="targetPoint" />
          </mxGeometry>
        </mxCell>
        <mxCell id="stkBc33TZ4ZUdulqgKSo-91" value="1" style="text;strokeColor=none;fillColor=none;spacingLeft=4;spacingRight=4;overflow=hidden;rotatable=0;points=[[0,0.5],[1,0.5]];portConstraint=eastwest;fontSize=12;whiteSpace=wrap;html=1;" vertex="1" parent="1">
          <mxGeometry x="600" y="-153" width="40" height="30" as="geometry" />
        </mxCell>
        <mxCell id="stkBc33TZ4ZUdulqgKSo-92" value="N" style="text;strokeColor=none;fillColor=none;spacingLeft=4;spacingRight=4;overflow=hidden;rotatable=0;points=[[0,0.5],[1,0.5]];portConstraint=eastwest;fontSize=12;whiteSpace=wrap;html=1;" vertex="1" parent="1">
          <mxGeometry x="460" y="-153" width="40" height="30" as="geometry" />
        </mxCell>
        <mxCell id="stkBc33TZ4ZUdulqgKSo-93" value="Registra" style="shape=rhombus;perimeter=rhombusPerimeter;whiteSpace=wrap;html=1;align=center;fillColor=#f8cecc;strokeColor=#b85450;" vertex="1" parent="1">
          <mxGeometry x="590" y="-138" width="90" height="60" as="geometry" />
        </mxCell>
        <mxCell id="stkBc33TZ4ZUdulqgKSo-94" value="" style="endArrow=none;html=1;rounded=0;exitX=0.66;exitY=1.07;exitDx=0;exitDy=0;entryX=0.5;entryY=0;entryDx=0;entryDy=0;exitPerimeter=0;" edge="1" parent="1" source="stkBc33TZ4ZUdulqgKSo-68" target="stkBc33TZ4ZUdulqgKSo-93">
          <mxGeometry relative="1" as="geometry">
            <mxPoint x="580" y="-183" as="sourcePoint" />
            <mxPoint x="468" y="-5" as="targetPoint" />
          </mxGeometry>
        </mxCell>
        <mxCell id="stkBc33TZ4ZUdulqgKSo-95" value="" style="endArrow=none;html=1;rounded=0;exitX=0.5;exitY=1;exitDx=0;exitDy=0;" edge="1" parent="1" source="stkBc33TZ4ZUdulqgKSo-93">
          <mxGeometry relative="1" as="geometry">
            <mxPoint x="590" y="-173" as="sourcePoint" />
            <mxPoint x="635" as="targetPoint" />
          </mxGeometry>
        </mxCell>
        <mxCell id="stkBc33TZ4ZUdulqgKSo-96" value="1" style="text;strokeColor=none;fillColor=none;spacingLeft=4;spacingRight=4;overflow=hidden;rotatable=0;points=[[0,0.5],[1,0.5]];portConstraint=eastwest;fontSize=12;whiteSpace=wrap;html=1;" vertex="1" parent="1">
          <mxGeometry x="400" y="-153" width="40" height="30" as="geometry" />
        </mxCell>
        <mxCell id="stkBc33TZ4ZUdulqgKSo-97" value="N" style="text;strokeColor=none;fillColor=none;spacingLeft=4;spacingRight=4;overflow=hidden;rotatable=0;points=[[0,0.5],[1,0.5]];portConstraint=eastwest;fontSize=12;whiteSpace=wrap;html=1;" vertex="1" parent="1">
          <mxGeometry x="601" y="-95" width="40" height="30" as="geometry" />
        </mxCell>
        <mxCell id="stkBc33TZ4ZUdulqgKSo-98" value="" style="endArrow=none;html=1;rounded=0;" edge="1" parent="1">
          <mxGeometry relative="1" as="geometry">
            <mxPoint x="755" y="23" as="sourcePoint" />
            <mxPoint x="805" y="23" as="targetPoint" />
          </mxGeometry>
        </mxCell>
        <mxCell id="stkBc33TZ4ZUdulqgKSo-99" value="" style="endArrow=none;html=1;rounded=0;" edge="1" parent="1">
          <mxGeometry relative="1" as="geometry">
            <mxPoint x="652" y="109" as="sourcePoint" />
            <mxPoint x="702" y="109" as="targetPoint" />
          </mxGeometry>
        </mxCell>
        <mxCell id="stkBc33TZ4ZUdulqgKSo-100" value="Diagnostico" style="whiteSpace=wrap;html=1;align=center;fillColor=#fff2cc;strokeColor=#d6b656;" vertex="1" parent="1">
          <mxGeometry x="490" y="210" width="100" height="40" as="geometry" />
        </mxCell>
        <mxCell id="stkBc33TZ4ZUdulqgKSo-101" value="ID_Historial" style="ellipse;whiteSpace=wrap;html=1;align=center;fontStyle=4;fillColor=#dae8fc;strokeColor=#6c8ebf;" vertex="1" parent="1">
          <mxGeometry x="480" y="52" width="100" height="40" as="geometry" />
        </mxCell>
        <mxCell id="stkBc33TZ4ZUdulqgKSo-102" value="ID_Resultado" style="ellipse;whiteSpace=wrap;html=1;align=center;fontStyle=4;fillColor=#dae8fc;strokeColor=#6c8ebf;" vertex="1" parent="1">
          <mxGeometry x="1360" y="260" width="100" height="40" as="geometry" />
        </mxCell>
        <mxCell id="stkBc33TZ4ZUdulqgKSo-103" value="Descripcion" style="ellipse;whiteSpace=wrap;html=1;align=center;fillColor=#dae8fc;strokeColor=#6c8ebf;" vertex="1" parent="1">
          <mxGeometry x="528" y="270" width="100" height="40" as="geometry" />
        </mxCell>
        <mxCell id="stkBc33TZ4ZUdulqgKSo-112" value="" style="endArrow=none;html=1;rounded=0;" edge="1" parent="1">
          <mxGeometry relative="1" as="geometry">
            <mxPoint x="436" y="299" as="sourcePoint" />
            <mxPoint x="496" y="299" as="targetPoint" />
          </mxGeometry>
        </mxCell>
        <mxCell id="stkBc33TZ4ZUdulqgKSo-113" value="Incluye" style="shape=rhombus;perimeter=rhombusPerimeter;whiteSpace=wrap;html=1;align=center;fillColor=#f8cecc;strokeColor=#b85450;" vertex="1" parent="1">
          <mxGeometry x="540" y="110" width="90" height="60" as="geometry" />
        </mxCell>
        <mxCell id="stkBc33TZ4ZUdulqgKSo-115" value="" style="endArrow=none;html=1;rounded=0;entryX=0.25;entryY=1;entryDx=0;entryDy=0;exitX=0.5;exitY=0;exitDx=0;exitDy=0;" edge="1" parent="1" source="stkBc33TZ4ZUdulqgKSo-113" target="stkBc33TZ4ZUdulqgKSo-81">
          <mxGeometry relative="1" as="geometry">
            <mxPoint x="590" y="110" as="sourcePoint" />
            <mxPoint x="750" y="110" as="targetPoint" />
          </mxGeometry>
        </mxCell>
        <mxCell id="stkBc33TZ4ZUdulqgKSo-117" value="" style="endArrow=none;html=1;rounded=0;entryX=0;entryY=1;entryDx=0;entryDy=0;exitX=0.5;exitY=0;exitDx=0;exitDy=0;" edge="1" parent="1" source="stkBc33TZ4ZUdulqgKSo-100" target="stkBc33TZ4ZUdulqgKSo-113">
          <mxGeometry relative="1" as="geometry">
            <mxPoint x="595" y="120" as="sourcePoint" />
            <mxPoint x="625" y="52" as="targetPoint" />
          </mxGeometry>
        </mxCell>
        <mxCell id="stkBc33TZ4ZUdulqgKSo-118" value="1" style="text;strokeColor=none;fillColor=none;spacingLeft=4;spacingRight=4;overflow=hidden;rotatable=0;points=[[0,0.5],[1,0.5]];portConstraint=eastwest;fontSize=12;whiteSpace=wrap;html=1;" vertex="1" parent="1">
          <mxGeometry x="950" y="5" width="40" height="30" as="geometry" />
        </mxCell>
        <mxCell id="stkBc33TZ4ZUdulqgKSo-119" value="N" style="text;strokeColor=none;fillColor=none;spacingLeft=4;spacingRight=4;overflow=hidden;rotatable=0;points=[[0,0.5],[1,0.5]];portConstraint=eastwest;fontSize=12;whiteSpace=wrap;html=1;" vertex="1" parent="1">
          <mxGeometry x="860" y="120" width="40" height="30" as="geometry" />
        </mxCell>
        <mxCell id="stkBc33TZ4ZUdulqgKSo-120" value="Prescripcion" style="whiteSpace=wrap;html=1;align=center;fillColor=#fff2cc;strokeColor=#d6b656;" vertex="1" parent="1">
          <mxGeometry x="870" y="158" width="100" height="40" as="geometry" />
        </mxCell>
        <mxCell id="stkBc33TZ4ZUdulqgKSo-121" value="ID_Diagnostico" style="ellipse;whiteSpace=wrap;html=1;align=center;fontStyle=4;fillColor=#dae8fc;strokeColor=#6c8ebf;" vertex="1" parent="1">
          <mxGeometry x="428" y="158" width="100" height="40" as="geometry" />
        </mxCell>
        <mxCell id="stkBc33TZ4ZUdulqgKSo-122" value="ID_Historial" style="ellipse;whiteSpace=wrap;html=1;align=center;fontStyle=4;fillColor=#dae8fc;strokeColor=#6c8ebf;" vertex="1" parent="1">
          <mxGeometry x="960" y="230" width="100" height="40" as="geometry" />
        </mxCell>
        <mxCell id="stkBc33TZ4ZUdulqgKSo-123" value="" style="endArrow=none;html=1;rounded=0;" edge="1" parent="1">
          <mxGeometry relative="1" as="geometry">
            <mxPoint x="980" y="259" as="sourcePoint" />
            <mxPoint x="1040" y="259" as="targetPoint" />
          </mxGeometry>
        </mxCell>
        <mxCell id="stkBc33TZ4ZUdulqgKSo-124" value="Instrucciones" style="ellipse;whiteSpace=wrap;html=1;align=center;fillColor=#dae8fc;strokeColor=#6c8ebf;" vertex="1" parent="1">
          <mxGeometry x="1017" y="158" width="100" height="40" as="geometry" />
        </mxCell>
        <mxCell id="stkBc33TZ4ZUdulqgKSo-125" value="Contiene" style="shape=rhombus;perimeter=rhombusPerimeter;whiteSpace=wrap;html=1;align=center;fillColor=#f8cecc;strokeColor=#b85450;" vertex="1" parent="1">
          <mxGeometry x="780" y="88" width="90" height="60" as="geometry" />
        </mxCell>
        <mxCell id="stkBc33TZ4ZUdulqgKSo-126" value="" style="endArrow=none;html=1;rounded=0;entryX=1;entryY=1;entryDx=0;entryDy=0;exitX=0;exitY=0;exitDx=0;exitDy=0;" edge="1" parent="1" source="stkBc33TZ4ZUdulqgKSo-125" target="stkBc33TZ4ZUdulqgKSo-81">
          <mxGeometry relative="1" as="geometry">
            <mxPoint x="595" y="120" as="sourcePoint" />
            <mxPoint x="625" y="52" as="targetPoint" />
          </mxGeometry>
        </mxCell>
        <mxCell id="stkBc33TZ4ZUdulqgKSo-127" value="" style="endArrow=none;html=1;rounded=0;entryX=1;entryY=1;entryDx=0;entryDy=0;exitX=0;exitY=0;exitDx=0;exitDy=0;" edge="1" parent="1" source="stkBc33TZ4ZUdulqgKSo-120" target="stkBc33TZ4ZUdulqgKSo-125">
          <mxGeometry relative="1" as="geometry">
            <mxPoint x="605" y="130" as="sourcePoint" />
            <mxPoint x="635" y="62" as="targetPoint" />
          </mxGeometry>
        </mxCell>
        <mxCell id="stkBc33TZ4ZUdulqgKSo-128" value="1" style="text;strokeColor=none;fillColor=none;spacingLeft=4;spacingRight=4;overflow=hidden;rotatable=0;points=[[0,0.5],[1,0.5]];portConstraint=eastwest;fontSize=12;whiteSpace=wrap;html=1;" vertex="1" parent="1">
          <mxGeometry x="600" y="100" width="40" height="30" as="geometry" />
        </mxCell>
        <mxCell id="stkBc33TZ4ZUdulqgKSo-129" value="N" style="text;strokeColor=none;fillColor=none;spacingLeft=4;spacingRight=4;overflow=hidden;rotatable=0;points=[[0,0.5],[1,0.5]];portConstraint=eastwest;fontSize=12;whiteSpace=wrap;html=1;" vertex="1" parent="1">
          <mxGeometry x="568" y="168" width="40" height="30" as="geometry" />
        </mxCell>
        <mxCell id="stkBc33TZ4ZUdulqgKSo-130" value="Medicamento" style="whiteSpace=wrap;html=1;align=center;fillColor=#fff2cc;strokeColor=#d6b656;" vertex="1" parent="1">
          <mxGeometry x="870" y="430" width="100" height="40" as="geometry" />
        </mxCell>
        <mxCell id="stkBc33TZ4ZUdulqgKSo-131" value="Prescribe" style="shape=rhombus;perimeter=rhombusPerimeter;whiteSpace=wrap;html=1;align=center;fillColor=#f8cecc;strokeColor=#b85450;" vertex="1" parent="1">
          <mxGeometry x="875" y="300" width="90" height="60" as="geometry" />
        </mxCell>
        <mxCell id="stkBc33TZ4ZUdulqgKSo-132" value="" style="endArrow=none;html=1;rounded=0;entryX=0.5;entryY=1;entryDx=0;entryDy=0;exitX=0.5;exitY=0;exitDx=0;exitDy=0;" edge="1" parent="1" source="stkBc33TZ4ZUdulqgKSo-131" target="stkBc33TZ4ZUdulqgKSo-120">
          <mxGeometry relative="1" as="geometry">
            <mxPoint x="1323" y="430" as="sourcePoint" />
            <mxPoint x="1210" y="369" as="targetPoint" />
          </mxGeometry>
        </mxCell>
        <mxCell id="stkBc33TZ4ZUdulqgKSo-133" value="" style="endArrow=none;html=1;rounded=0;entryX=0.5;entryY=1;entryDx=0;entryDy=0;exitX=0.5;exitY=0;exitDx=0;exitDy=0;" edge="1" parent="1" source="stkBc33TZ4ZUdulqgKSo-130" target="stkBc33TZ4ZUdulqgKSo-131">
          <mxGeometry relative="1" as="geometry">
            <mxPoint x="930" y="310" as="sourcePoint" />
            <mxPoint x="930" y="208" as="targetPoint" />
          </mxGeometry>
        </mxCell>
        <mxCell id="stkBc33TZ4ZUdulqgKSo-134" value="N" style="text;strokeColor=none;fillColor=none;spacingLeft=4;spacingRight=4;overflow=hidden;rotatable=0;points=[[0,0.5],[1,0.5]];portConstraint=eastwest;fontSize=12;whiteSpace=wrap;html=1;" vertex="1" parent="1">
          <mxGeometry x="890" y="270" width="40" height="30" as="geometry" />
        </mxCell>
        <mxCell id="stkBc33TZ4ZUdulqgKSo-135" value="M" style="text;strokeColor=none;fillColor=none;spacingLeft=4;spacingRight=4;overflow=hidden;rotatable=0;points=[[0,0.5],[1,0.5]];portConstraint=eastwest;fontSize=12;whiteSpace=wrap;html=1;" vertex="1" parent="1">
          <mxGeometry x="890" y="370" width="40" height="30" as="geometry" />
        </mxCell>
        <mxCell id="stkBc33TZ4ZUdulqgKSo-138" value="ID_Medicamento" style="ellipse;whiteSpace=wrap;html=1;align=center;fontStyle=4;fillColor=#dae8fc;strokeColor=#6c8ebf;" vertex="1" parent="1">
          <mxGeometry x="740" y="430" width="100" height="40" as="geometry" />
        </mxCell>
        <mxCell id="stkBc33TZ4ZUdulqgKSo-140" value="Nombre" style="ellipse;whiteSpace=wrap;html=1;align=center;fillColor=#dae8fc;strokeColor=#6c8ebf;" vertex="1" parent="1">
          <mxGeometry x="1010" y="430" width="100" height="40" as="geometry" />
        </mxCell>
        <mxCell id="stkBc33TZ4ZUdulqgKSo-141" value="Descripcion" style="ellipse;whiteSpace=wrap;html=1;align=center;fillColor=#dae8fc;strokeColor=#6c8ebf;" vertex="1" parent="1">
          <mxGeometry x="875" y="510" width="100" height="40" as="geometry" />
        </mxCell>
        <mxCell id="stkBc33TZ4ZUdulqgKSo-142" value="Orden_Laboratorio" style="whiteSpace=wrap;html=1;align=center;fillColor=#fff2cc;strokeColor=#d6b656;" vertex="1" parent="1">
          <mxGeometry x="1210" y="20" width="100" height="40" as="geometry" />
        </mxCell>
        <mxCell id="stkBc33TZ4ZUdulqgKSo-143" value="Genera" style="shape=rhombus;perimeter=rhombusPerimeter;whiteSpace=wrap;html=1;align=center;fillColor=#f8cecc;strokeColor=#b85450;" vertex="1" parent="1">
          <mxGeometry x="960" y="10" width="90" height="60" as="geometry" />
        </mxCell>
        <mxCell id="stkBc33TZ4ZUdulqgKSo-144" value="" style="endArrow=none;html=1;rounded=0;entryX=1;entryY=1;entryDx=0;entryDy=0;exitX=0;exitY=0.5;exitDx=0;exitDy=0;" edge="1" parent="1" source="stkBc33TZ4ZUdulqgKSo-143" target="stkBc33TZ4ZUdulqgKSo-81">
          <mxGeometry relative="1" as="geometry">
            <mxPoint x="973" y="47" as="sourcePoint" />
            <mxPoint x="700" y="52" as="targetPoint" />
          </mxGeometry>
        </mxCell>
        <mxCell id="stkBc33TZ4ZUdulqgKSo-145" value="" style="endArrow=none;html=1;rounded=0;entryX=0;entryY=0.5;entryDx=0;entryDy=0;" edge="1" parent="1" target="stkBc33TZ4ZUdulqgKSo-142">
          <mxGeometry relative="1" as="geometry">
            <mxPoint x="1050" y="40" as="sourcePoint" />
            <mxPoint x="700" y="52" as="targetPoint" />
          </mxGeometry>
        </mxCell>
        <mxCell id="stkBc33TZ4ZUdulqgKSo-147" value="1" style="text;strokeColor=none;fillColor=none;spacingLeft=4;spacingRight=4;overflow=hidden;rotatable=0;points=[[0,0.5],[1,0.5]];portConstraint=eastwest;fontSize=12;whiteSpace=wrap;html=1;" vertex="1" parent="1">
          <mxGeometry x="797" y="80" width="40" height="30" as="geometry" />
        </mxCell>
        <mxCell id="stkBc33TZ4ZUdulqgKSo-148" value="N" style="text;strokeColor=none;fillColor=none;spacingLeft=4;spacingRight=4;overflow=hidden;rotatable=0;points=[[0,0.5],[1,0.5]];portConstraint=eastwest;fontSize=12;whiteSpace=wrap;html=1;" vertex="1" parent="1">
          <mxGeometry x="1270" y="205" width="40" height="30" as="geometry" />
        </mxCell>
        <mxCell id="stkBc33TZ4ZUdulqgKSo-150" value="ID_Historial" style="ellipse;whiteSpace=wrap;html=1;align=center;fontStyle=4;fillColor=#dae8fc;strokeColor=#6c8ebf;" vertex="1" parent="1">
          <mxGeometry x="1130" y="-63" width="100" height="40" as="geometry" />
        </mxCell>
        <mxCell id="stkBc33TZ4ZUdulqgKSo-151" value="" style="endArrow=none;html=1;rounded=0;" edge="1" parent="1">
          <mxGeometry relative="1" as="geometry">
            <mxPoint x="1150" y="-34" as="sourcePoint" />
            <mxPoint x="1210" y="-34" as="targetPoint" />
          </mxGeometry>
        </mxCell>
        <mxCell id="stkBc33TZ4ZUdulqgKSo-152" value="ID_Prescripcion" style="ellipse;whiteSpace=wrap;html=1;align=center;fontStyle=4;fillColor=#dae8fc;strokeColor=#6c8ebf;" vertex="1" parent="1">
          <mxGeometry x="790" y="230" width="100" height="40" as="geometry" />
        </mxCell>
        <mxCell id="stkBc33TZ4ZUdulqgKSo-153" value="Fecha_Orden" style="ellipse;whiteSpace=wrap;html=1;align=center;fillColor=#dae8fc;strokeColor=#6c8ebf;" vertex="1" parent="1">
          <mxGeometry x="1370" y="60" width="100" height="40" as="geometry" />
        </mxCell>
        <mxCell id="stkBc33TZ4ZUdulqgKSo-154" value="Fecha_Resultado" style="ellipse;whiteSpace=wrap;html=1;align=center;fillColor=#dae8fc;strokeColor=#6c8ebf;" vertex="1" parent="1">
          <mxGeometry x="1117" y="350" width="100" height="40" as="geometry" />
        </mxCell>
        <mxCell id="stkBc33TZ4ZUdulqgKSo-155" value="Tiene" style="shape=rhombus;perimeter=rhombusPerimeter;whiteSpace=wrap;html=1;align=center;fillColor=#f8cecc;strokeColor=#b85450;" vertex="1" parent="1">
          <mxGeometry x="1215" y="148" width="90" height="60" as="geometry" />
        </mxCell>
        <mxCell id="stkBc33TZ4ZUdulqgKSo-156" value="Resultado_Laboratorio" style="whiteSpace=wrap;html=1;align=center;fillColor=#fff2cc;strokeColor=#d6b656;" vertex="1" parent="1">
          <mxGeometry x="1199" y="280" width="125" height="40" as="geometry" />
        </mxCell>
        <mxCell id="stkBc33TZ4ZUdulqgKSo-157" value="" style="endArrow=none;html=1;rounded=0;entryX=0.5;entryY=1;entryDx=0;entryDy=0;exitX=0.5;exitY=0;exitDx=0;exitDy=0;" edge="1" parent="1" source="stkBc33TZ4ZUdulqgKSo-155" target="stkBc33TZ4ZUdulqgKSo-142">
          <mxGeometry relative="1" as="geometry">
            <mxPoint x="1060" y="50" as="sourcePoint" />
            <mxPoint x="1220" y="50" as="targetPoint" />
          </mxGeometry>
        </mxCell>
        <mxCell id="stkBc33TZ4ZUdulqgKSo-158" value="" style="endArrow=none;html=1;rounded=0;entryX=0.5;entryY=1;entryDx=0;entryDy=0;exitX=0.5;exitY=0;exitDx=0;exitDy=0;" edge="1" parent="1" source="stkBc33TZ4ZUdulqgKSo-156" target="stkBc33TZ4ZUdulqgKSo-155">
          <mxGeometry relative="1" as="geometry">
            <mxPoint x="1080" y="80" as="sourcePoint" />
            <mxPoint x="1240" y="80" as="targetPoint" />
          </mxGeometry>
        </mxCell>
        <mxCell id="stkBc33TZ4ZUdulqgKSo-159" value="1" style="text;strokeColor=none;fillColor=none;spacingLeft=4;spacingRight=4;overflow=hidden;rotatable=0;points=[[0,0.5],[1,0.5]];portConstraint=eastwest;fontSize=12;whiteSpace=wrap;html=1;" vertex="1" parent="1">
          <mxGeometry x="1265" y="125" width="40" height="30" as="geometry" />
        </mxCell>
        <mxCell id="stkBc33TZ4ZUdulqgKSo-161" value="N" style="text;strokeColor=none;fillColor=none;spacingLeft=4;spacingRight=4;overflow=hidden;rotatable=0;points=[[0,0.5],[1,0.5]];portConstraint=eastwest;fontSize=12;whiteSpace=wrap;html=1;" vertex="1" parent="1">
          <mxGeometry x="1040" y="14" width="40" height="30" as="geometry" />
        </mxCell>
        <mxCell id="stkBc33TZ4ZUdulqgKSo-162" value="ID_Orden" style="ellipse;whiteSpace=wrap;html=1;align=center;fontStyle=4;fillColor=#dae8fc;strokeColor=#6c8ebf;" vertex="1" parent="1">
          <mxGeometry x="1270" y="-58" width="100" height="40" as="geometry" />
        </mxCell>
        <mxCell id="stkBc33TZ4ZUdulqgKSo-163" value="Resultado" style="ellipse;whiteSpace=wrap;html=1;align=center;fillColor=#dae8fc;strokeColor=#6c8ebf;" vertex="1" parent="1">
          <mxGeometry x="1350" y="340" width="100" height="40" as="geometry" />
        </mxCell>
        <mxCell id="stkBc33TZ4ZUdulqgKSo-164" value="Descripcion" style="ellipse;whiteSpace=wrap;html=1;align=center;fillColor=#dae8fc;strokeColor=#6c8ebf;" vertex="1" parent="1">
          <mxGeometry x="1390" y="-3" width="100" height="40" as="geometry" />
        </mxCell>
        <mxCell id="stkBc33TZ4ZUdulqgKSo-165" value="ID_Orden" style="ellipse;whiteSpace=wrap;html=1;align=center;fontStyle=4;fillColor=#dae8fc;strokeColor=#6c8ebf;" vertex="1" parent="1">
          <mxGeometry x="1235" y="350" width="100" height="40" as="geometry" />
        </mxCell>
        <mxCell id="stkBc33TZ4ZUdulqgKSo-167" value="" style="endArrow=none;html=1;rounded=0;" edge="1" parent="1">
          <mxGeometry relative="1" as="geometry">
            <mxPoint x="1252" y="380" as="sourcePoint" />
            <mxPoint x="1312" y="380" as="targetPoint" />
          </mxGeometry>
        </mxCell>
        <mxCell id="stkBc33TZ4ZUdulqgKSo-168" value="" style="endArrow=none;html=1;rounded=0;entryX=1;entryY=1;entryDx=0;entryDy=0;" edge="1" parent="1" target="stkBc33TZ4ZUdulqgKSo-17">
          <mxGeometry relative="1" as="geometry">
            <mxPoint x="-165" y="-50" as="sourcePoint" />
            <mxPoint x="150" y="-120" as="targetPoint" />
          </mxGeometry>
        </mxCell>
        <mxCell id="stkBc33TZ4ZUdulqgKSo-171" value="" style="endArrow=none;html=1;rounded=0;entryX=1;entryY=0.5;entryDx=0;entryDy=0;exitX=0;exitY=0.5;exitDx=0;exitDy=0;" edge="1" parent="1" source="stkBc33TZ4ZUdulqgKSo-15" target="stkBc33TZ4ZUdulqgKSo-16">
          <mxGeometry relative="1" as="geometry">
            <mxPoint x="-160" y="-30" as="sourcePoint" />
            <mxPoint x="-165" y="-69" as="targetPoint" />
            <Array as="points">
              <mxPoint x="-180" y="-30" />
            </Array>
          </mxGeometry>
        </mxCell>
        <mxCell id="stkBc33TZ4ZUdulqgKSo-172" value="" style="endArrow=none;html=1;rounded=0;entryX=0.5;entryY=0;entryDx=0;entryDy=0;exitX=0;exitY=1;exitDx=0;exitDy=0;" edge="1" parent="1" source="stkBc33TZ4ZUdulqgKSo-15" target="stkBc33TZ4ZUdulqgKSo-20">
          <mxGeometry relative="1" as="geometry">
            <mxPoint x="-145" y="-30" as="sourcePoint" />
            <mxPoint x="-155" y="-59" as="targetPoint" />
          </mxGeometry>
        </mxCell>
        <mxCell id="stkBc33TZ4ZUdulqgKSo-173" value="" style="endArrow=none;html=1;rounded=0;entryX=0.75;entryY=1;entryDx=0;entryDy=0;exitX=0.5;exitY=0;exitDx=0;exitDy=0;" edge="1" parent="1" source="stkBc33TZ4ZUdulqgKSo-19" target="stkBc33TZ4ZUdulqgKSo-15">
          <mxGeometry relative="1" as="geometry">
            <mxPoint x="-135" y="-20" as="sourcePoint" />
            <mxPoint x="-145" y="-49" as="targetPoint" />
          </mxGeometry>
        </mxCell>
        <mxCell id="stkBc33TZ4ZUdulqgKSo-174" value="" style="endArrow=none;html=1;rounded=0;exitX=0;exitY=0;exitDx=0;exitDy=0;entryX=0.5;entryY=1;entryDx=0;entryDy=0;" edge="1" parent="1" source="stkBc33TZ4ZUdulqgKSo-27" target="stkBc33TZ4ZUdulqgKSo-30">
          <mxGeometry relative="1" as="geometry">
            <mxPoint x="177" y="-394" as="sourcePoint" />
            <mxPoint x="177" y="-470" as="targetPoint" />
          </mxGeometry>
        </mxCell>
        <mxCell id="stkBc33TZ4ZUdulqgKSo-175" value="" style="endArrow=none;html=1;rounded=0;exitX=0;exitY=0.5;exitDx=0;exitDy=0;entryX=1;entryY=0.5;entryDx=0;entryDy=0;" edge="1" parent="1" source="stkBc33TZ4ZUdulqgKSo-27" target="stkBc33TZ4ZUdulqgKSo-28">
          <mxGeometry relative="1" as="geometry">
            <mxPoint x="187" y="-384" as="sourcePoint" />
            <mxPoint x="187" y="-460" as="targetPoint" />
          </mxGeometry>
        </mxCell>
        <mxCell id="stkBc33TZ4ZUdulqgKSo-176" value="" style="endArrow=none;html=1;rounded=0;exitX=1;exitY=0.25;exitDx=0;exitDy=0;entryX=0.5;entryY=1;entryDx=0;entryDy=0;" edge="1" parent="1" source="stkBc33TZ4ZUdulqgKSo-27" target="stkBc33TZ4ZUdulqgKSo-31">
          <mxGeometry relative="1" as="geometry">
            <mxPoint x="197" y="-374" as="sourcePoint" />
            <mxPoint x="197" y="-450" as="targetPoint" />
          </mxGeometry>
        </mxCell>
        <mxCell id="stkBc33TZ4ZUdulqgKSo-177" value="" style="endArrow=none;html=1;rounded=0;exitX=0;exitY=1;exitDx=0;exitDy=0;entryX=1;entryY=0.5;entryDx=0;entryDy=0;" edge="1" parent="1" source="stkBc33TZ4ZUdulqgKSo-33" target="stkBc33TZ4ZUdulqgKSo-27">
          <mxGeometry relative="1" as="geometry">
            <mxPoint x="207" y="-364" as="sourcePoint" />
            <mxPoint x="207" y="-440" as="targetPoint" />
            <Array as="points">
              <mxPoint x="240" y="-496" />
            </Array>
          </mxGeometry>
        </mxCell>
        <mxCell id="stkBc33TZ4ZUdulqgKSo-179" value="" style="endArrow=none;html=1;rounded=0;exitX=0.75;exitY=0;exitDx=0;exitDy=0;entryX=0.1;entryY=0.717;entryDx=0;entryDy=0;entryPerimeter=0;" edge="1" parent="1" source="stkBc33TZ4ZUdulqgKSo-1" target="stkBc33TZ4ZUdulqgKSo-4">
          <mxGeometry relative="1" as="geometry">
            <mxPoint x="100" y="-380" as="sourcePoint" />
            <mxPoint x="260" y="-380" as="targetPoint" />
          </mxGeometry>
        </mxCell>
        <mxCell id="stkBc33TZ4ZUdulqgKSo-181" value="" style="endArrow=none;html=1;rounded=0;exitX=1;exitY=0;exitDx=0;exitDy=0;entryX=0;entryY=0.5;entryDx=0;entryDy=0;" edge="1" parent="1" source="stkBc33TZ4ZUdulqgKSo-1" target="stkBc33TZ4ZUdulqgKSo-11">
          <mxGeometry relative="1" as="geometry">
            <mxPoint x="204" y="-253" as="sourcePoint" />
            <mxPoint x="259" y="-310" as="targetPoint" />
          </mxGeometry>
        </mxCell>
        <mxCell id="stkBc33TZ4ZUdulqgKSo-182" value="" style="endArrow=none;html=1;rounded=0;entryX=0;entryY=0.5;entryDx=0;entryDy=0;" edge="1" parent="1" target="stkBc33TZ4ZUdulqgKSo-8">
          <mxGeometry relative="1" as="geometry">
            <mxPoint x="220" y="-240" as="sourcePoint" />
            <mxPoint x="269" y="-300" as="targetPoint" />
          </mxGeometry>
        </mxCell>
        <mxCell id="stkBc33TZ4ZUdulqgKSo-183" value="" style="endArrow=none;html=1;rounded=0;exitX=0;exitY=0;exitDx=0;exitDy=0;entryX=1;entryY=0.5;entryDx=0;entryDy=0;" edge="1" parent="1" source="stkBc33TZ4ZUdulqgKSo-1" target="stkBc33TZ4ZUdulqgKSo-2">
          <mxGeometry relative="1" as="geometry">
            <mxPoint x="-99" y="-306" as="sourcePoint" />
            <mxPoint x="-44" y="-363" as="targetPoint" />
          </mxGeometry>
        </mxCell>
        <mxCell id="stkBc33TZ4ZUdulqgKSo-184" value="" style="endArrow=none;html=1;rounded=0;exitX=0;exitY=0.5;exitDx=0;exitDy=0;entryX=1;entryY=0.5;entryDx=0;entryDy=0;" edge="1" parent="1" source="stkBc33TZ4ZUdulqgKSo-1" target="stkBc33TZ4ZUdulqgKSo-3">
          <mxGeometry relative="1" as="geometry">
            <mxPoint x="234" y="-223" as="sourcePoint" />
            <mxPoint x="289" y="-280" as="targetPoint" />
          </mxGeometry>
        </mxCell>
        <mxCell id="stkBc33TZ4ZUdulqgKSo-185" value="" style="endArrow=none;html=1;rounded=0;exitX=0;exitY=1;exitDx=0;exitDy=0;entryX=1;entryY=0.5;entryDx=0;entryDy=0;" edge="1" parent="1" source="stkBc33TZ4ZUdulqgKSo-1" target="stkBc33TZ4ZUdulqgKSo-5">
          <mxGeometry relative="1" as="geometry">
            <mxPoint x="244" y="-213" as="sourcePoint" />
            <mxPoint x="299" y="-270" as="targetPoint" />
          </mxGeometry>
        </mxCell>
        <mxCell id="stkBc33TZ4ZUdulqgKSo-186" value="" style="endArrow=none;html=1;rounded=0;exitX=1;exitY=1;exitDx=0;exitDy=0;entryX=0;entryY=0;entryDx=0;entryDy=0;" edge="1" parent="1" source="stkBc33TZ4ZUdulqgKSo-42" target="stkBc33TZ4ZUdulqgKSo-39">
          <mxGeometry relative="1" as="geometry">
            <mxPoint x="100" y="-40" as="sourcePoint" />
            <mxPoint x="260" y="-40" as="targetPoint" />
          </mxGeometry>
        </mxCell>
        <mxCell id="stkBc33TZ4ZUdulqgKSo-187" value="" style="endArrow=none;html=1;rounded=0;entryX=0;entryY=1;entryDx=0;entryDy=0;exitX=1;exitY=0;exitDx=0;exitDy=0;" edge="1" parent="1" source="stkBc33TZ4ZUdulqgKSo-39" target="stkBc33TZ4ZUdulqgKSo-44">
          <mxGeometry relative="1" as="geometry">
            <mxPoint x="100" y="-40" as="sourcePoint" />
            <mxPoint x="260" y="-40" as="targetPoint" />
          </mxGeometry>
        </mxCell>
        <mxCell id="stkBc33TZ4ZUdulqgKSo-188" value="" style="endArrow=none;html=1;rounded=0;exitX=1;exitY=0.5;exitDx=0;exitDy=0;entryX=0;entryY=0.5;entryDx=0;entryDy=0;" edge="1" parent="1" source="stkBc33TZ4ZUdulqgKSo-43" target="stkBc33TZ4ZUdulqgKSo-39">
          <mxGeometry relative="1" as="geometry">
            <mxPoint x="100" y="-40" as="sourcePoint" />
            <mxPoint x="260" y="-40" as="targetPoint" />
          </mxGeometry>
        </mxCell>
        <mxCell id="stkBc33TZ4ZUdulqgKSo-189" value="" style="endArrow=none;html=1;rounded=0;exitX=1;exitY=1;exitDx=0;exitDy=0;entryX=0;entryY=0;entryDx=0;entryDy=0;" edge="1" parent="1" source="stkBc33TZ4ZUdulqgKSo-39" target="stkBc33TZ4ZUdulqgKSo-58">
          <mxGeometry relative="1" as="geometry">
            <mxPoint x="100" y="-40" as="sourcePoint" />
            <mxPoint x="260" y="-40" as="targetPoint" />
          </mxGeometry>
        </mxCell>
        <mxCell id="stkBc33TZ4ZUdulqgKSo-190" value="" style="endArrow=none;html=1;rounded=0;exitX=0.5;exitY=0;exitDx=0;exitDy=0;" edge="1" parent="1" source="stkBc33TZ4ZUdulqgKSo-40">
          <mxGeometry relative="1" as="geometry">
            <mxPoint x="100" y="-40" as="sourcePoint" />
            <mxPoint x="150" y="20" as="targetPoint" />
          </mxGeometry>
        </mxCell>
        <mxCell id="stkBc33TZ4ZUdulqgKSo-195" value="" style="endArrow=none;html=1;rounded=0;exitX=0.98;exitY=0.375;exitDx=0;exitDy=0;exitPerimeter=0;entryX=0;entryY=0.5;entryDx=0;entryDy=0;" edge="1" parent="1" source="stkBc33TZ4ZUdulqgKSo-57" target="stkBc33TZ4ZUdulqgKSo-53">
          <mxGeometry relative="1" as="geometry">
            <mxPoint x="100" y="120" as="sourcePoint" />
            <mxPoint x="260" y="120" as="targetPoint" />
          </mxGeometry>
        </mxCell>
        <mxCell id="stkBc33TZ4ZUdulqgKSo-196" value="" style="endArrow=none;html=1;rounded=0;exitX=1;exitY=0.25;exitDx=0;exitDy=0;entryX=-0.003;entryY=0.375;entryDx=0;entryDy=0;entryPerimeter=0;" edge="1" parent="1" source="stkBc33TZ4ZUdulqgKSo-53" target="stkBc33TZ4ZUdulqgKSo-41">
          <mxGeometry relative="1" as="geometry">
            <mxPoint x="100" y="120" as="sourcePoint" />
            <mxPoint x="260" y="120" as="targetPoint" />
          </mxGeometry>
        </mxCell>
        <mxCell id="stkBc33TZ4ZUdulqgKSo-199" value="" style="endArrow=none;html=1;rounded=0;exitX=0.5;exitY=0;exitDx=0;exitDy=0;entryX=0;entryY=1;entryDx=0;entryDy=0;" edge="1" parent="1" source="stkBc33TZ4ZUdulqgKSo-55" target="stkBc33TZ4ZUdulqgKSo-53">
          <mxGeometry relative="1" as="geometry">
            <mxPoint x="100" y="210" as="sourcePoint" />
            <mxPoint x="260" y="210" as="targetPoint" />
          </mxGeometry>
        </mxCell>
        <mxCell id="stkBc33TZ4ZUdulqgKSo-200" value="" style="endArrow=none;html=1;rounded=0;exitX=0.5;exitY=0;exitDx=0;exitDy=0;entryX=0.5;entryY=1;entryDx=0;entryDy=0;" edge="1" parent="1" source="stkBc33TZ4ZUdulqgKSo-54" target="stkBc33TZ4ZUdulqgKSo-53">
          <mxGeometry relative="1" as="geometry">
            <mxPoint x="100" y="210" as="sourcePoint" />
            <mxPoint x="260" y="210" as="targetPoint" />
          </mxGeometry>
        </mxCell>
        <mxCell id="stkBc33TZ4ZUdulqgKSo-201" value="" style="endArrow=none;html=1;rounded=0;entryX=1;entryY=1;entryDx=0;entryDy=0;" edge="1" parent="1" source="stkBc33TZ4ZUdulqgKSo-56" target="stkBc33TZ4ZUdulqgKSo-53">
          <mxGeometry relative="1" as="geometry">
            <mxPoint x="100" y="210" as="sourcePoint" />
            <mxPoint x="260" y="210" as="targetPoint" />
          </mxGeometry>
        </mxCell>
        <mxCell id="stkBc33TZ4ZUdulqgKSo-202" value="" style="endArrow=none;html=1;rounded=0;entryX=1;entryY=1;entryDx=0;entryDy=0;exitX=0.25;exitY=0;exitDx=0;exitDy=0;" edge="1" parent="1" source="stkBc33TZ4ZUdulqgKSo-100" target="stkBc33TZ4ZUdulqgKSo-121">
          <mxGeometry relative="1" as="geometry">
            <mxPoint x="320" y="210" as="sourcePoint" />
            <mxPoint x="480" y="210" as="targetPoint" />
          </mxGeometry>
        </mxCell>
        <mxCell id="stkBc33TZ4ZUdulqgKSo-203" value="" style="endArrow=none;html=1;rounded=0;entryX=0;entryY=1;entryDx=0;entryDy=0;exitX=0.5;exitY=0;exitDx=0;exitDy=0;" edge="1" parent="1" source="stkBc33TZ4ZUdulqgKSo-82" target="stkBc33TZ4ZUdulqgKSo-100">
          <mxGeometry relative="1" as="geometry">
            <mxPoint x="320" y="210" as="sourcePoint" />
            <mxPoint x="480" y="210" as="targetPoint" />
          </mxGeometry>
        </mxCell>
        <mxCell id="stkBc33TZ4ZUdulqgKSo-204" value="" style="endArrow=none;html=1;rounded=0;exitX=0.663;exitY=0.875;exitDx=0;exitDy=0;exitPerimeter=0;entryX=0.43;entryY=0.058;entryDx=0;entryDy=0;entryPerimeter=0;" edge="1" parent="1" source="stkBc33TZ4ZUdulqgKSo-100" target="stkBc33TZ4ZUdulqgKSo-103">
          <mxGeometry relative="1" as="geometry">
            <mxPoint x="320" y="210" as="sourcePoint" />
            <mxPoint x="480" y="210" as="targetPoint" />
          </mxGeometry>
        </mxCell>
        <mxCell id="stkBc33TZ4ZUdulqgKSo-205" value="" style="endArrow=none;html=1;rounded=0;entryX=1;entryY=0;entryDx=0;entryDy=0;exitX=0;exitY=1;exitDx=0;exitDy=0;" edge="1" parent="1" source="stkBc33TZ4ZUdulqgKSo-81" target="stkBc33TZ4ZUdulqgKSo-101">
          <mxGeometry relative="1" as="geometry">
            <mxPoint x="320" y="40" as="sourcePoint" />
            <mxPoint x="480" y="40" as="targetPoint" />
          </mxGeometry>
        </mxCell>
        <mxCell id="stkBc33TZ4ZUdulqgKSo-206" value="" style="endArrow=none;html=1;rounded=0;entryX=0;entryY=0;entryDx=0;entryDy=0;exitX=0.5;exitY=1;exitDx=0;exitDy=0;" edge="1" parent="1" source="stkBc33TZ4ZUdulqgKSo-81" target="stkBc33TZ4ZUdulqgKSo-85">
          <mxGeometry relative="1" as="geometry">
            <mxPoint x="320" y="40" as="sourcePoint" />
            <mxPoint x="480" y="40" as="targetPoint" />
          </mxGeometry>
        </mxCell>
        <mxCell id="stkBc33TZ4ZUdulqgKSo-207" value="" style="endArrow=none;html=1;rounded=0;exitX=0;exitY=0.5;exitDx=0;exitDy=0;entryX=1;entryY=0.5;entryDx=0;entryDy=0;" edge="1" parent="1" source="stkBc33TZ4ZUdulqgKSo-83" target="stkBc33TZ4ZUdulqgKSo-81">
          <mxGeometry relative="1" as="geometry">
            <mxPoint x="320" y="40" as="sourcePoint" />
            <mxPoint x="480" y="40" as="targetPoint" />
          </mxGeometry>
        </mxCell>
        <mxCell id="stkBc33TZ4ZUdulqgKSo-208" value="" style="endArrow=none;html=1;rounded=0;entryX=0.5;entryY=1;entryDx=0;entryDy=0;exitX=0.937;exitY=-0.025;exitDx=0;exitDy=0;exitPerimeter=0;" edge="1" parent="1" source="stkBc33TZ4ZUdulqgKSo-81" target="stkBc33TZ4ZUdulqgKSo-86">
          <mxGeometry relative="1" as="geometry">
            <mxPoint x="320" y="40" as="sourcePoint" />
            <mxPoint x="480" y="40" as="targetPoint" />
          </mxGeometry>
        </mxCell>
        <mxCell id="stkBc33TZ4ZUdulqgKSo-209" value="" style="endArrow=none;html=1;rounded=0;entryX=0.5;entryY=1;entryDx=0;entryDy=0;exitX=0.25;exitY=0;exitDx=0;exitDy=0;" edge="1" parent="1" source="stkBc33TZ4ZUdulqgKSo-81" target="stkBc33TZ4ZUdulqgKSo-87">
          <mxGeometry relative="1" as="geometry">
            <mxPoint x="320" y="40" as="sourcePoint" />
            <mxPoint x="480" y="40" as="targetPoint" />
          </mxGeometry>
        </mxCell>
        <mxCell id="stkBc33TZ4ZUdulqgKSo-210" value="" style="endArrow=none;html=1;rounded=0;exitX=1;exitY=0.5;exitDx=0;exitDy=0;entryX=0;entryY=0.5;entryDx=0;entryDy=0;" edge="1" parent="1" source="stkBc33TZ4ZUdulqgKSo-70" target="stkBc33TZ4ZUdulqgKSo-68">
          <mxGeometry relative="1" as="geometry">
            <mxPoint x="580" y="-130" as="sourcePoint" />
            <mxPoint x="740" y="-130" as="targetPoint" />
          </mxGeometry>
        </mxCell>
        <mxCell id="stkBc33TZ4ZUdulqgKSo-211" value="" style="endArrow=none;html=1;rounded=0;exitX=0.5;exitY=1;exitDx=0;exitDy=0;entryX=0.25;entryY=0;entryDx=0;entryDy=0;" edge="1" parent="1" source="stkBc33TZ4ZUdulqgKSo-69" target="stkBc33TZ4ZUdulqgKSo-68">
          <mxGeometry relative="1" as="geometry">
            <mxPoint x="580" y="-130" as="sourcePoint" />
            <mxPoint x="600" y="-230" as="targetPoint" />
          </mxGeometry>
        </mxCell>
        <mxCell id="stkBc33TZ4ZUdulqgKSo-212" value="" style="endArrow=none;html=1;rounded=0;exitX=0;exitY=1;exitDx=0;exitDy=0;entryX=0.75;entryY=0;entryDx=0;entryDy=0;" edge="1" parent="1" source="stkBc33TZ4ZUdulqgKSo-71" target="stkBc33TZ4ZUdulqgKSo-68">
          <mxGeometry relative="1" as="geometry">
            <mxPoint x="580" y="-130" as="sourcePoint" />
            <mxPoint x="740" y="-130" as="targetPoint" />
          </mxGeometry>
        </mxCell>
        <mxCell id="stkBc33TZ4ZUdulqgKSo-213" value="" style="endArrow=none;html=1;rounded=0;entryX=0;entryY=0.5;entryDx=0;entryDy=0;exitX=1;exitY=0.5;exitDx=0;exitDy=0;" edge="1" parent="1" source="stkBc33TZ4ZUdulqgKSo-68" target="stkBc33TZ4ZUdulqgKSo-73">
          <mxGeometry relative="1" as="geometry">
            <mxPoint x="580" y="-130" as="sourcePoint" />
            <mxPoint x="740" y="-130" as="targetPoint" />
          </mxGeometry>
        </mxCell>
        <mxCell id="stkBc33TZ4ZUdulqgKSo-214" value="" style="endArrow=none;html=1;rounded=0;entryX=0;entryY=0.5;entryDx=0;entryDy=0;exitX=1;exitY=0.75;exitDx=0;exitDy=0;" edge="1" parent="1" source="stkBc33TZ4ZUdulqgKSo-68" target="stkBc33TZ4ZUdulqgKSo-74">
          <mxGeometry relative="1" as="geometry">
            <mxPoint x="580" y="-130" as="sourcePoint" />
            <mxPoint x="740" y="-130" as="targetPoint" />
          </mxGeometry>
        </mxCell>
        <mxCell id="stkBc33TZ4ZUdulqgKSo-215" value="" style="endArrow=none;html=1;rounded=0;entryX=0;entryY=0;entryDx=0;entryDy=0;exitX=0.75;exitY=1;exitDx=0;exitDy=0;" edge="1" parent="1" source="stkBc33TZ4ZUdulqgKSo-68" target="stkBc33TZ4ZUdulqgKSo-72">
          <mxGeometry relative="1" as="geometry">
            <mxPoint x="580" y="-130" as="sourcePoint" />
            <mxPoint x="740" y="-130" as="targetPoint" />
          </mxGeometry>
        </mxCell>
        <mxCell id="stkBc33TZ4ZUdulqgKSo-218" value="" style="endArrow=none;html=1;rounded=0;" edge="1" parent="1">
          <mxGeometry relative="1" as="geometry">
            <mxPoint x="1190" y="-20" as="sourcePoint" />
            <mxPoint x="1210" y="20" as="targetPoint" />
          </mxGeometry>
        </mxCell>
        <mxCell id="stkBc33TZ4ZUdulqgKSo-219" value="" style="endArrow=none;html=1;rounded=0;exitX=0;exitY=1;exitDx=0;exitDy=0;" edge="1" parent="1" source="stkBc33TZ4ZUdulqgKSo-162">
          <mxGeometry relative="1" as="geometry">
            <mxPoint x="1060" y="50" as="sourcePoint" />
            <mxPoint x="1250" y="20" as="targetPoint" />
          </mxGeometry>
        </mxCell>
        <mxCell id="stkBc33TZ4ZUdulqgKSo-220" value="" style="endArrow=none;html=1;rounded=0;exitX=0;exitY=0.5;exitDx=0;exitDy=0;" edge="1" parent="1" source="stkBc33TZ4ZUdulqgKSo-164">
          <mxGeometry relative="1" as="geometry">
            <mxPoint x="1060" y="50" as="sourcePoint" />
            <mxPoint x="1310" y="30" as="targetPoint" />
          </mxGeometry>
        </mxCell>
        <mxCell id="stkBc33TZ4ZUdulqgKSo-221" value="" style="endArrow=none;html=1;rounded=0;entryX=0;entryY=0.5;entryDx=0;entryDy=0;exitX=1;exitY=1;exitDx=0;exitDy=0;" edge="1" parent="1" source="stkBc33TZ4ZUdulqgKSo-142" target="stkBc33TZ4ZUdulqgKSo-153">
          <mxGeometry relative="1" as="geometry">
            <mxPoint x="1060" y="50" as="sourcePoint" />
            <mxPoint x="1220" y="50" as="targetPoint" />
          </mxGeometry>
        </mxCell>
        <mxCell id="stkBc33TZ4ZUdulqgKSo-223" value="" style="endArrow=none;html=1;rounded=0;entryX=0;entryY=1;entryDx=0;entryDy=0;exitX=1;exitY=0.5;exitDx=0;exitDy=0;" edge="1" parent="1" source="stkBc33TZ4ZUdulqgKSo-156" target="stkBc33TZ4ZUdulqgKSo-102">
          <mxGeometry relative="1" as="geometry">
            <mxPoint x="1060" y="300" as="sourcePoint" />
            <mxPoint x="1220" y="300" as="targetPoint" />
          </mxGeometry>
        </mxCell>
        <mxCell id="stkBc33TZ4ZUdulqgKSo-224" value="" style="endArrow=none;html=1;rounded=0;exitX=0.4;exitY=0.063;exitDx=0;exitDy=0;exitPerimeter=0;" edge="1" parent="1" source="stkBc33TZ4ZUdulqgKSo-154">
          <mxGeometry relative="1" as="geometry">
            <mxPoint x="1060" y="300" as="sourcePoint" />
            <mxPoint x="1200" y="320" as="targetPoint" />
          </mxGeometry>
        </mxCell>
        <mxCell id="stkBc33TZ4ZUdulqgKSo-225" value="" style="endArrow=none;html=1;rounded=0;exitX=0.5;exitY=0;exitDx=0;exitDy=0;entryX=0.5;entryY=1;entryDx=0;entryDy=0;" edge="1" parent="1" source="stkBc33TZ4ZUdulqgKSo-165" target="stkBc33TZ4ZUdulqgKSo-156">
          <mxGeometry relative="1" as="geometry">
            <mxPoint x="1060" y="300" as="sourcePoint" />
            <mxPoint x="1220" y="300" as="targetPoint" />
          </mxGeometry>
        </mxCell>
        <mxCell id="stkBc33TZ4ZUdulqgKSo-226" value="" style="endArrow=none;html=1;rounded=0;entryX=1;entryY=1;entryDx=0;entryDy=0;exitX=0;exitY=0;exitDx=0;exitDy=0;" edge="1" parent="1" source="stkBc33TZ4ZUdulqgKSo-163" target="stkBc33TZ4ZUdulqgKSo-156">
          <mxGeometry relative="1" as="geometry">
            <mxPoint x="1060" y="300" as="sourcePoint" />
            <mxPoint x="1220" y="300" as="targetPoint" />
          </mxGeometry>
        </mxCell>
        <mxCell id="stkBc33TZ4ZUdulqgKSo-227" value="" style="endArrow=none;html=1;rounded=0;entryX=1;entryY=0.5;entryDx=0;entryDy=0;exitX=0;exitY=0.5;exitDx=0;exitDy=0;" edge="1" parent="1" source="stkBc33TZ4ZUdulqgKSo-124" target="stkBc33TZ4ZUdulqgKSo-120">
          <mxGeometry relative="1" as="geometry">
            <mxPoint x="1080" y="230" as="sourcePoint" />
            <mxPoint x="1220" y="300" as="targetPoint" />
          </mxGeometry>
        </mxCell>
        <mxCell id="stkBc33TZ4ZUdulqgKSo-228" value="" style="endArrow=none;html=1;rounded=0;exitX=1;exitY=1;exitDx=0;exitDy=0;entryX=0.5;entryY=0;entryDx=0;entryDy=0;" edge="1" parent="1" source="stkBc33TZ4ZUdulqgKSo-120" target="stkBc33TZ4ZUdulqgKSo-122">
          <mxGeometry relative="1" as="geometry">
            <mxPoint x="1060" y="300" as="sourcePoint" />
            <mxPoint x="1220" y="300" as="targetPoint" />
          </mxGeometry>
        </mxCell>
        <mxCell id="stkBc33TZ4ZUdulqgKSo-229" value="" style="endArrow=none;html=1;rounded=0;exitX=0;exitY=1;exitDx=0;exitDy=0;entryX=0.5;entryY=0;entryDx=0;entryDy=0;" edge="1" parent="1" source="stkBc33TZ4ZUdulqgKSo-120" target="stkBc33TZ4ZUdulqgKSo-152">
          <mxGeometry relative="1" as="geometry">
            <mxPoint x="1060" y="300" as="sourcePoint" />
            <mxPoint x="1220" y="300" as="targetPoint" />
          </mxGeometry>
        </mxCell>
        <mxCell id="stkBc33TZ4ZUdulqgKSo-230" value="" style="endArrow=none;html=1;rounded=0;exitX=1;exitY=0.5;exitDx=0;exitDy=0;entryX=0;entryY=0.5;entryDx=0;entryDy=0;" edge="1" parent="1" source="stkBc33TZ4ZUdulqgKSo-130" target="stkBc33TZ4ZUdulqgKSo-140">
          <mxGeometry relative="1" as="geometry">
            <mxPoint x="1060" y="300" as="sourcePoint" />
            <mxPoint x="1220" y="300" as="targetPoint" />
          </mxGeometry>
        </mxCell>
        <mxCell id="stkBc33TZ4ZUdulqgKSo-231" value="" style="endArrow=none;html=1;rounded=0;exitX=0.5;exitY=1;exitDx=0;exitDy=0;entryX=0.5;entryY=0;entryDx=0;entryDy=0;" edge="1" parent="1" source="stkBc33TZ4ZUdulqgKSo-130" target="stkBc33TZ4ZUdulqgKSo-141">
          <mxGeometry relative="1" as="geometry">
            <mxPoint x="1060" y="300" as="sourcePoint" />
            <mxPoint x="1220" y="300" as="targetPoint" />
          </mxGeometry>
        </mxCell>
        <mxCell id="stkBc33TZ4ZUdulqgKSo-232" value="" style="endArrow=none;html=1;rounded=0;exitX=1;exitY=0.5;exitDx=0;exitDy=0;entryX=0;entryY=0.5;entryDx=0;entryDy=0;" edge="1" parent="1" source="stkBc33TZ4ZUdulqgKSo-138" target="stkBc33TZ4ZUdulqgKSo-130">
          <mxGeometry relative="1" as="geometry">
            <mxPoint x="1060" y="420" as="sourcePoint" />
            <mxPoint x="1220" y="420" as="targetPoint" />
          </mxGeometry>
        </mxCell>
      </root>
    </mxGraphModel>
  </diagram>
</mxfile>
